<svg width="20" height="20" viewBox="0 0 20 20" fill="none" xmlns="http://www.w3.org/2000/svg">
<path d="M4.16666 3.33325H15.8333C16.4964 3.33325 17.1323 3.59664 17.6011 4.06549C18.0699 4.53433 18.3333 5.17021 18.3333 5.83325V14.1666C18.3333 14.8296 18.0699 15.4655 17.6011 15.9344C17.1323 16.4032 16.4964 16.6666 15.8333 16.6666H4.16666C3.50362 16.6666 2.86774 16.4032 2.39889 15.9344C1.93005 15.4655 1.66666 14.8296 1.66666 14.1666V5.83325C1.66666 5.17021 1.93005 4.53433 2.39889 4.06549C2.86774 3.59664 3.50362 3.33325 4.16666 3.33325ZM4.16666 4.99992L9.58333 8.72492C9.71001 8.79806 9.85371 8.83656 10 8.83656C10.1463 8.83656 10.29 8.79806 10.4167 8.72492L15.8333 4.99992H4.16666Z" fill="#F8F8F8"/>
</svg>
